<?xml version="1.0" standalone="no"?>
<!DOCTYPE svg PUBLIC "-//W3C//DTD SVG 20010904//EN"
 "http://www.w3.org/TR/2001/REC-SVG-20010904/DTD/svg10.dtd">
<svg version="1.0" xmlns="http://www.w3.org/2000/svg"
 width="256.000000pt" height="256.000000pt" viewBox="0 0 256.000000 256.000000"
 preserveAspectRatio="xMidYMid meet">
<metadata>
Created by potrace 1.16, written by Peter Selinger 2001-2019
</metadata>
<g transform="translate(0.000000,256.000000) scale(0.100000,-0.100000)"
fill="#000000" stroke="none">
<path d="M995 2464 c-166 -19 -443 -66 -612 -105 -140 -32 -143 -33 -143 -59
0 -15 8 -34 18 -43 14 -13 247 -81 348 -102 l32 -6 -34 -95 c-51 -144 -67
-250 -62 -439 l3 -160 55 -95 54 -95 12 105 c15 128 54 306 86 385 17 44 32
64 56 79 34 19 36 19 175 0 185 -24 408 -24 592 0 197 26 208 19 259 -156 24
-83 63 -295 68 -373 l3 -40 55 95 55 95 3 160 c4 185 -11 295 -58 426 -17 46
-31 88 -33 93 -1 5 16 14 38 19 54 12 276 74 298 82 16 7 17 -12 17 -345 -1
-213 3 -357 9 -363 15 -15 31 2 31 33 0 15 6 31 13 33 10 4 10 6 0 6 -10 1
-13 81 -13 364 l0 364 -142 32 c-467 106 -864 141 -1183 105z"/>
<path d="M905 1611 c-62 -15 -109 -56 -103 -88 4 -20 25 -21 105 -5 41 9 64 8
108 -3 71 -19 84 -19 92 1 6 17 -29 59 -67 79 -34 17 -99 25 -135 16z"/>
<path d="M1556 1605 c-57 -15 -110 -62 -100 -89 6 -15 13 -17 43 -10 20 4 70
8 111 8 41 0 91 -4 111 -8 48 -11 58 12 23 53 -39 46 -116 65 -188 46z"/>
<path d="M912 1475 c-22 -10 -38 -27 -48 -51 -18 -43 -13 -73 20 -111 19 -22
32 -28 66 -28 35 0 47 6 71 33 72 80 -11 199 -109 157z"/>
<path d="M1570 1472 c-62 -31 -78 -99 -35 -150 48 -57 120 -50 158 16 17 29
18 39 8 73 -19 62 -76 89 -131 61z"/>
<path d="M1055 1019 c-9 -28 24 -62 99 -99 82 -42 166 -42 251 -1 74 35 110
71 100 100 -8 25 -23 26 -89 6 -27 -8 -88 -15 -136 -15 -48 0 -109 7 -136 15
-66 20 -81 19 -89 -6z"/>
<path d="M955 624 c-366 -49 -598 -163 -685 -336 -25 -52 -30 -73 -30 -135 l0
-73 1041 0 1041 0 -4 77 c-4 96 -30 155 -99 223 -120 120 -346 207 -633 245
-66 8 -123 12 -126 8 -4 -5 -44 -56 -89 -115 -45 -60 -86 -108 -91 -108 -5 0
-49 52 -97 115 -63 82 -94 115 -108 114 -11 -1 -65 -7 -120 -15z"/>
</g>
</svg>
